<?xml version="1.0" encoding="UTF-8"?>
<svg xmlns="http://www.w3.org/2000/svg" width="356" height="60" viewBox="0 0 356 60" fill="none">
  <g opacity="0.7">
    <path d="M155.1 45.7001C153.1 47.3001 149.7 48.1001 147.1 48.3001C144.8 48.4001 142.7 48.1001 140.8 46.8001C139.2 45.7001 138 44.2001 137.1 42.5001C135.1 38.8001 135.3 34.3001 133.2 30.7001C132.4 29.4001 131.2 28.9001 129.7 29.1001C128.2 29.3001 126.9 30.3001 126 31.5001C125 32.8001 124.2 34.3001 123.7 35.9001C123.7 35.7001 123.6 35.5001 123.6 35.3001C123 32.0001 121.6 28.5001 118.6 26.7001C116.3 25.3001 112.5 24.7001 110.4 26.6001C108.7 28.1001 108.5 30.6001 108.7 32.7001C109.4 38.4001 113.4 43.6001 118.7 45.6001C116.4 47.1001 113.4 47.6001 110.8 47.6001C107.4 47.5001 104.7 45.0001 102.6 42.5001C101.5 41.1001 100.6 39.6001 99.8999 38.0001C101.1 34.4001 101.6 30.5001 101.8 26.8001C102.1 21.5001 101.8 16.1001 101.3 10.8001C101.2 9.40008 101 8.00007 100.7 6.60007C100.5 5.90007 100.2 5.00008 99.3999 4.90008C98.3999 4.70008 97.7999 5.60008 97.4999 6.40008C96.8999 7.80008 96.5999 9.30007 96.2999 10.7001C95.2999 15.6001 94.9999 20.6001 95.3999 25.5001C95.3999 25.9001 95.4999 26.3001 95.4999 26.8001C94.2999 26.2001 92.8999 25.9001 91.5999 26.0001C89.4999 26.1001 88.0999 27.3001 86.7999 28.9001C85.3999 30.6001 84.1999 32.7001 83.4999 34.8001C82.7999 36.8001 82.4999 39.0001 82.8999 41.1001C83.3999 43.3001 84.6999 45.7001 86.3999 47.2001C86.6999 47.5001 87.0999 47.8001 87.4999 48.0001C87.1999 48.5001 86.6999 48.7001 86.0999 48.6001C84.6999 48.2001 83.4999 47.1001 82.4999 46.2001C81.3999 45.2001 80.2999 44.1001 79.4999 42.8001C78.6999 41.5001 78.0999 40.1001 77.4999 38.6001C76.6999 36.7001 76.0999 34.8001 75.4999 32.8001C75.6999 31.7001 75.8999 30.5001 76.0999 29.4001C76.7999 25.7001 77.2999 22.0001 77.2999 18.2001C77.2999 15.8001 77.0999 13.4001 76.5999 11.0001C76.2999 9.40007 75.9999 7.70008 75.1999 6.30008C74.7999 5.60008 74.0999 4.90007 73.2999 5.50007C72.3999 6.10008 72.0999 7.70007 71.8999 8.70007C69.9999 16.5001 71.6999 24.6001 73.7999 32.2001C73.8999 32.4001 73.8999 32.7001 73.9999 32.9001C73.6999 34.1001 73.3999 35.3001 73.1999 36.4001C72.8999 37.5001 72.5999 38.6001 72.1999 39.7001C71.9999 40.3001 71.6999 40.8001 71.4999 41.3001C70.7999 43.1001 70.1999 45.1001 68.6999 46.5001C66.4999 48.6001 63.0999 48.4001 60.4999 47.2001C60.3999 47.2001 60.2999 47.1001 60.1999 47.0001C60.5999 46.8001 60.9999 46.6001 61.3999 46.3001C62.4999 45.5001 63.4999 44.4001 64.1999 43.2001C65.6999 40.9001 66.6999 38.0001 66.2999 35.3001C65.9999 32.7001 64.1999 30.8001 61.4999 30.5001C56.1999 29.9001 54.2999 36.8001 54.7999 40.8001C55.0999 43.0001 55.9999 45.0001 57.4999 46.5001C55.2999 46.8001 52.8999 46.4001 51.0999 45.3001C49.8999 44.6001 48.7999 43.6001 48.3999 42.2001C47.7999 40.4001 47.9999 38.4001 47.3999 36.6001C47.0999 35.5001 46.0999 34.0001 44.6999 34.5001C43.3999 35.0001 42.9999 37.1001 42.3999 38.2001C41.9999 39.1001 41.4999 39.9001 41.0999 40.7001C40.6999 41.4001 40.3999 42.3001 39.6999 42.9001C38.1999 44.2001 36.1999 43.2001 35.4999 41.6001C34.5999 39.4001 34.6999 36.8001 34.7999 34.4001C34.8999 31.6001 35.0999 28.9001 35.2999 26.1001C35.5999 20.8001 36.2999 15.4001 36.1999 10.1001C36.1999 8.80008 35.8999 7.40007 34.7999 6.70007C33.8999 6.20007 32.7999 6.30007 31.7999 6.70007C30.4999 7.30007 29.3999 8.60007 28.4999 9.70007C26.8999 11.5001 25.5999 13.4001 24.3999 15.5001C21.3999 13.2001 17.6999 12.2001 14.0999 11.5001C10.9999 10.9001 6.69994 10.3001 4.29994 12.9001C1.59994 15.7001 3.39994 19.4001 5.79994 21.7001C8.29994 24.2001 11.5999 25.7001 14.6999 27.3001C15.9999 28.0001 17.3999 28.7001 18.6999 29.4001V29.5001C17.2999 34.4001 15.5999 41.8001 19.3999 46.1001C20.5999 47.4001 22.2999 48.2001 23.9999 48.6001C26.7999 49.1001 30.2999 48.9001 32.4999 47.0001C33.7999 45.9001 34.5999 44.3001 34.6999 42.6001C35.3999 43.8001 36.4999 44.6001 38.1999 44.6001C39.8999 44.6001 41.0999 43.7001 41.7999 42.3001C42.7999 40.6001 43.5999 38.8001 44.3999 37.0001C44.4999 36.7001 44.6999 36.0001 44.9999 35.8001C45.2999 35.6001 45.3999 35.7001 45.6999 36.1001C46.1999 36.9001 46.2999 37.9001 46.3999 38.8001C46.5999 40.5001 46.6999 42.4001 47.6999 43.9001C49.6999 46.9001 53.7999 47.9001 57.1999 47.6001C57.6999 47.6001 58.0999 47.5001 58.5999 47.4001C60.9999 49.0001 64.5999 49.7001 67.3999 48.6001C69.5999 47.7001 70.9999 45.6001 71.8999 43.4001C72.4999 41.9001 73.1999 40.4001 73.6999 38.9001C74.0999 37.7001 74.3999 36.4001 74.6999 35.1001C75.4999 37.5001 76.3999 39.8001 77.4999 42.0001C78.9999 44.8001 81.3999 47.3001 84.1999 48.8001C84.8999 49.2001 85.8999 49.6001 86.6999 49.4001C87.3999 49.3001 87.8999 48.8001 88.2999 48.2001C89.2999 48.6001 90.3999 48.7001 91.5999 48.3001C92.7999 47.9001 93.8999 47.0001 94.7999 46.1001C96.4999 44.3001 97.7999 42.3001 98.7999 40.0001C100.5 43.2001 103.1 46.2001 106.3 47.8001C110.5 50.0001 116.7 48.9001 120.4 45.9001C121.6 46.1001 122.8 46.2001 124 46.2001C124.4 46.2001 124.9 45.9001 124.9 45.4001C125 43.6001 124.5 41.9001 124.5 40.1001C124.5 37.4001 125.2 34.9001 126.7 32.6001C127.5 31.4001 128.6 30.0001 130.1 30.2001C131.5 30.4001 131.9 32.9001 132.2 33.9001C133.3 37.8001 133.9 41.8001 136.5 45.0001C139.2 48.3001 142.9 49.8001 147.2 49.4001C150.2 49.1001 153.6 48.3001 156 46.4001C157.2 46.1001 155.8 45.1001 155.1 45.7001ZM12.3999 25.0001C10.6999 24.1001 9.09994 23.1001 7.59994 21.9001C6.19994 20.7001 4.69994 19.1001 4.39994 17.2001C4.09994 15.5001 4.89994 13.9001 6.39994 13.1001C7.89994 12.3001 9.69994 12.3001 11.2999 12.5001C13.2999 12.7001 15.1999 13.2001 17.0999 13.7001C19.1999 14.3001 21.0999 14.9001 22.8999 16.2001C23.1999 16.4001 23.4999 16.7001 23.7999 16.9001C21.7999 20.6001 20.1999 24.6001 18.9999 28.6001C16.8999 27.3001 14.5999 26.2001 12.3999 25.0001ZM33.4999 42.7001C33.2999 44.0001 32.7999 45.3001 31.8999 46.2001C29.7999 48.3001 25.9999 48.3001 23.3999 47.6001C18.0999 46.0001 18.0999 39.4001 18.8999 34.9001C19.1999 33.4001 19.4999 31.9001 19.8999 30.4001C21.2999 31.2001 22.6999 32.0001 24.0999 32.8001C26.3999 34.1001 28.6999 35.3001 30.6999 37.2001C32.2999 38.5001 33.7999 40.4001 33.4999 42.7001ZM28.5999 33.9001C25.8999 32.2001 23.0999 30.6001 20.2999 29.1001C21.1999 26.2001 22.1999 23.4001 23.4999 20.7001C23.9999 19.7001 24.3999 18.7001 24.9999 17.8001C26.9999 19.8001 28.6999 22.7001 27.6999 25.3001C26.9999 27.3001 24.8999 28.8001 23.0999 29.6001C22.2999 30.0001 23.0999 30.9001 23.7999 30.6001C25.7999 29.7001 27.8999 28.1001 28.8999 26.0001C30.3999 22.7001 28.0999 18.9001 25.6999 16.7001C25.6999 16.7001 25.6999 16.7001 25.5999 16.7001C26.5999 14.9001 27.6999 13.2001 28.9999 11.6001C29.5999 10.9001 30.1999 10.2001 30.8999 9.50007C31.2999 9.00007 31.7999 8.50007 32.2999 8.20007C33.3999 7.60007 34.4999 7.70007 34.8999 9.00007C35.1999 10.0001 35.0999 11.3001 34.9999 12.4001C34.6999 18.6001 34.1999 24.8001 33.7999 31.1001C33.6999 33.3001 33.4999 35.4001 33.5999 37.6001C33.5999 37.9001 33.5999 38.3001 33.6999 38.6001C32.3999 36.6001 30.4999 35.1001 28.5999 33.9001ZM56.3999 41.3001C55.7999 37.9001 57.4999 30.1001 62.4999 31.9001C64.9999 32.8001 65.4999 35.6001 64.9999 38.0001C64.4999 40.6001 63.1999 43.3001 61.0999 45.1001C60.4999 45.6001 59.7999 46.0001 58.9999 46.3001C57.6999 45.1001 56.7999 43.3001 56.3999 41.3001ZM74.1999 6.40008C74.3999 6.40008 74.2999 6.10008 74.1999 6.40008ZM74.2999 28.2001C73.4999 25.0001 72.7999 21.8001 72.5999 18.5001C72.3999 14.7001 72.4999 10.2001 74.0999 6.70007C74.2999 7.20007 74.5999 7.70008 74.6999 8.30008C75.2999 10.2001 75.5999 12.3001 75.7999 14.3001C76.2999 19.6001 75.6999 24.9001 74.6999 30.2001C74.5999 29.4001 74.3999 28.8001 74.2999 28.2001ZM98.6999 8.30008C98.7999 8.00008 98.8999 7.70008 98.9999 7.30008C98.9999 7.30008 98.9999 7.30007 98.9999 7.40007C99.7999 10.7001 99.7999 14.3001 99.8999 17.6001C100.1 23.3001 100.3 29.4001 98.8999 35.1001C98.6999 34.4001 98.4999 33.7001 98.2999 32.9001C98.0999 32.0001 97.8999 31.0001 97.6999 30.0001C97.6999 30.0001 97.6999 30.0001 97.7999 30.0001C98.5999 30.6001 99.9999 29.6001 99.0999 28.9001C98.5999 28.5001 97.9999 28.0001 97.3999 27.7001C96.4999 21.3001 96.8999 14.5001 98.6999 8.30008ZM92.8999 46.1001C91.7999 47.0001 90.5999 47.5001 89.2999 47.1001C89.2999 46.8001 88.7999 46.6001 88.4999 46.7001C86.7999 45.6001 85.6999 43.5001 84.9999 41.6001C83.6999 37.9001 85.5999 33.4001 87.7999 30.4001C88.7999 29.0001 89.9999 27.5001 91.8999 27.5001C93.2999 27.5001 94.5999 28.1001 95.7999 28.7001C96.1999 31.9001 96.9999 35.0001 98.1999 38.0001C97.7999 39.1001 97.2999 40.2001 96.7999 41.3001C95.6999 43.1001 94.3999 44.8001 92.8999 46.1001ZM111.5 36.4001C110.4 33.9001 109 27.4001 113.3 27.0001C120.4 26.4001 122.3 34.8001 121.9 40.3001C121.8 42.0001 121.1 43.4001 120.1 44.5001C116.3 43.3001 113.2 40.2001 111.5 36.4001ZM122.1 44.8001C122.6 44.2001 123 43.6001 123.2 42.9001C123.3 43.6001 123.3 44.3001 123.4 44.9001C123 44.9001 122.5 44.9001 122.1 44.8001Z" fill="#001D69"></path>
    <path d="M233.2 26.2C234 30.4 234.4 34.7 234.2 39C234 42.2 233.6 46.1 231.6 48.8C230.1 50.7 227.5 51 225.8 49.1C223.8 46.9 223.3 43.5 222.8 40.8C222.3 37.5 222.2 34.1 221.7 30.8C221.6 29.9 220.1 29.8 220 30.8C219.6 35 219 39.8 216.6 43.4C216 44.2 215.3 45 214.5 45.4C213.9 45.7 213.2 45.9 212.6 45.9C211.9 45.9 211.8 45.9 211.1 45.8C210.1 45.6 209.6 44.6 209.2 43.7C209.5 43.1 209.8 42.4 210 41.7C210.4 40.4 210.5 39 210.6 37.7C210.8 36 210.9 34.4 210.9 32.7C210.9 29.1 210.3 25.3 208 22.4C207.8 22.1 207.5 21.9 207.3 21.6C207 19.7 206.5 17.9 205.9 16.1C204.5 11.8 202 7.80004 198.4 5.10004C194.3 2.00004 189.1 1.20004 184 1.80004C179.4 2.40004 175.1 4.50004 172.3 8.30004C170.1 11.4 169.1 15.1 168.7 18.8C168 25.3 169 31.9 172.9 37.4C175.8 41.4 179.8 44.3 184.2 46.4C187.2 47.8 190.4 48.9 193.6 49.7C196.2 50.3 198.9 50.9 201.6 50.6C203.2 50.4 204.2 49.5 205.4 48.4C205.8 48 206.2 47.6 206.6 47.1C207 47 207.3 46.9 207.7 46.8C208.4 46.6 208.2 45.9 207.7 45.7C207.8 45.5 207.9 45.4 208.1 45.2C208.5 45.9 209 46.4 209.6 46.7C210.2 47 211 47.1 211.7 47.1C213.7 47.3 215.6 46.6 217 45.2C218.3 43.8 219.2 42.1 219.8 40.3C220.2 39.3 220.4 38.2 220.7 37.2C220.8 38.3 220.9 39.3 221.1 40.4C221.6 43.5 222.2 47.2 224.3 49.7C226.2 51.9 229.5 52.4 231.9 50.6C234.6 48.5 235.4 44.5 235.8 41.3C236.4 36.1 236 30.7 235 25.6C234.6 24.9 233 25.2 233.2 26.2ZM209.1 38.1C208.9 39.4 208.8 40.7 208.4 41.9C207.7 39.6 207.5 37.2 207.2 34.8C207.1 34.2 207.1 33.6 207 33.1C207.5 31 207.7 28.8 207.7 26.5C208 26.5 208.2 26.4 208.4 26.2C208.7 27 208.9 27.8 209 28.6C209.6 31.7 209.5 35 209.1 38.1ZM194 43.5C191 41.2 188.9 37.8 187.7 34.3C187.3 33.1 186.9 31.8 186.9 30.6C186.8 29.8 187 29.1 187 28.2C187.1 25.6 187.8 23.2 190.1 21.7C192.1 20.4 194.6 19.9 197 19.7C199.3 19.5 201.7 19.5 203.8 20.5C204.6 20.9 205.4 21.4 206 22C206 22.1 206 22.2 206 22.3C206.1 23.1 206.2 23.9 206.3 24.7C205.5 24.8 204.8 25.3 204.8 26.3C204.7 28 205 29.7 205.2 31.4C205.3 32.2 205.4 33 205.5 33.8C205.4 34.2 205.2 34.6 205.1 35C203.4 39.4 199.7 42.5 195.3 44.2C194.8 44.1 194.4 43.8 194 43.5ZM208 25.1C207.9 25.1 207.8 25 207.7 25C207.7 24.8 207.7 24.6 207.6 24.4C207.7 24.6 207.8 24.8 208 25.1ZM169.9 23.5C169.8 16.9 171.3 9.20004 177.3 5.40004C181.4 2.80004 186.9 2.20004 191.6 3.30004C195.9 4.30004 199.4 7.00004 201.8 10.7C203.7 13.6 204.9 17 205.6 20.4C202.8 18.6 199.3 18.5 196 18.9C192.1 19.4 187.8 20.7 186.3 24.7C185.9 25.8 185.8 27.1 185.7 28.3C185.6 29.2 185.5 30 185.6 31C185.9 34.3 187.4 37.7 189.3 40.4C190.6 42.2 192.1 43.8 193.9 45C191.8 45.7 189.5 46.1 187.3 45.7C185.1 45.2 183.2 44 181.6 42.5C180.9 41.8 180.2 41.1 179.6 40.3C179.2 39.7 178 40.2 178.4 40.9C178.9 41.5 179.4 42.2 180 42.8C179.2 42.2 178.5 41.7 177.8 41C172.6 36.3 169.9 30.1 169.9 23.5ZM203.9 48.3C203.5 48.7 202.9 49.3 202.3 49.5C201.8 49.7 201 49.7 200.5 49.7C197.6 49.7 194.7 49 191.9 48.2C190.5 47.8 189 47.3 187.6 46.7C189.9 47 192.2 46.5 194.4 45.8C194.6 45.7 194.8 45.7 195 45.6C196.6 46.5 198.4 47.2 200.2 47.5C201.6 47.7 203 47.8 204.4 47.6C204.3 47.9 204.1 48.1 203.9 48.3ZM205.8 46.3C203.9 46.7 202 46.8 200.1 46.4C198.9 46.1 197.7 45.7 196.6 45.2C198.2 44.5 199.7 43.7 201.1 42.6C203.2 41 204.8 38.9 205.9 36.7C205.9 37 206 37.4 206 37.7C206.2 39.1 206.3 40.5 206.8 41.9C207 42.6 207.2 43.4 207.5 44.1C206.9 44.9 206.4 45.6 205.8 46.3Z" fill="#001D69"></path>
    <path d="M221.2 12.5001C221.3 12.5001 221.4 12.6001 221.4 12.6001C221.4 12.6001 221.5 12.7001 221.5 12.6001C221.4 12.5001 221.6 12.6001 221.6 12.7001C221.7 12.8001 221.8 12.9001 221.9 13.0001C222 13.0001 222 13.1001 222 13.1001L222.1 13.2001C222.2 13.3001 222.3 13.5001 222.4 13.6001C222.5 13.7001 222.5 13.8001 222.6 13.9001C222.6 13.9001 222.6 14.0001 222.7 14.0001V14.1001C222.8 14.3001 222.9 14.6001 223 14.8001C223.2 15.4001 223.2 16.1001 223.2 16.8001C223.2 17.5001 224.4 17.5001 224.4 16.8001C224.4 14.9001 223.8 12.9001 222.1 11.8001C222 11.7001 221.9 11.7001 221.8 11.6001C221.5 11.5001 221.2 11.5001 221 11.8001C220.8 12.1001 220.9 12.4001 221.2 12.5001Z" fill="#001D69"></path>
    <path d="M294 40.8001C290.5 38.4001 286.7 36.6001 283.4 34.0001C279.9 31.3001 276.5 28.2001 273.9 24.6001C273 23.3001 272.2 22.0001 272.1 20.4001C272.1 20.3001 272.1 20.3001 272.1 20.3001C272.2 20.3001 272.4 20.2001 272.7 20.3001C274.9 20.4001 277.3 21.7001 279 23.2001C281.9 25.7001 283.4 29.2001 283.6 33.0001C283.6 33.9001 285.2 33.9001 285.2 33.0001C284.9 26.9001 281.2 21.6001 275.5 19.6001C274.3 19.2001 272.1 18.4001 271 19.4001C270.3 20.0001 270.6 21.3001 270.8 22.1001C271.3 23.7001 272.4 25.2001 273.4 26.5001C276.2 30.0001 279.6 33.1001 283.2 35.8001C285 37.1001 287 38.3001 288.9 39.5001C290.4 40.4001 292 41.3001 293.5 42.3001C294.2 42.8001 294.8 43.3001 294.6 44.1001C294.5 44.8001 294.2 45.4001 293.7 45.9001C292.9 46.8001 291.6 47.2001 290.5 47.5001C288.3 48.0001 285.9 48.0001 283.7 47.9001C282.2 47.9001 280.6 47.8001 279 47.6001C279.1 47.0001 278.6 46.4001 277.8 46.6001C277.3 46.7001 276.9 46.9001 276.4 47.1001C275.4 46.8001 274.4 46.4001 273.5 45.9001C273 45.6001 272.6 45.3001 272.3 44.8001C272.3 44.8001 272.3 44.8001 272.3 44.7001C272.3 44.6001 272.3 44.6001 272.2 44.5001C272.2 43.6001 270.6 43.6001 270.6 44.5001C270.6 45.2001 271.1 45.8001 271.6 46.2001C272.3 46.9001 273.2 47.3001 274.1 47.7001C273 48.0001 271.8 48.1001 270.7 47.9001C269 47.6001 267.6 46.3001 266.2 45.3001C265.3 44.6001 264.3 43.9001 263.5 43.1001C262.7 42.2001 262.1 41.2001 261.5 40.1001C260.9 39.0001 260.5 37.9001 260.1 36.8001C260.4 36.1001 260.6 35.3001 260.8 34.6001C261.5 31.8001 261.7 28.8001 261.9 26.0001C262.2 20.7001 262.2 15.2001 261.2 10.0001C261 8.6001 260.7 7.3001 260.2 6.0001C259.9 5.2001 259.5 4.3001 258.6 3.9001C256.7 3.0001 255.6 5.6001 255.1 7.0001C253.1 13.0001 254.1 19.5001 255.3 25.6001C251.9 24.8001 247.9 25.3001 245.2 27.6001C243.2 29.3001 242 31.9001 241 34.3001C240 36.7001 239.4 39.3001 239.3 42.0001C239.2 44.2001 239.7 46.7001 241.2 48.4001C242.8 50.3001 245.4 51.2001 247.8 51.0001C253.1 50.6001 256.3 45.5001 258.3 41.2001C258.5 40.7001 258.8 40.2001 259 39.7001C259.7 41.4001 260.7 43.0001 261.9 44.4001C262.8 45.4001 263.8 46.1001 264.9 46.9001C265.8 47.6001 266.7 48.3001 267.7 48.9001C269.5 50.0001 271.5 50.1001 273.5 49.8001C274.7 49.6001 275.9 49.2001 277.1 48.9001H277.2C281.4 49.7001 286 50.0001 290.2 49.2001C292.4 48.8001 294.9 47.9001 295.9 45.7001C296.2 45.1001 296.4 44.2001 296.3 43.6001C295.9 42.2001 294.8 41.4001 294 40.8001ZM257.8 5.3001C257.9 5.3001 257.9 5.1001 257.8 5.3001ZM255.8 13.9001C255.9 11.3001 256.1 8.4001 257.3 6.1001C257.4 5.9001 257.5 5.8001 257.7 5.6001C257.8 5.8001 258 6.1001 258.1 6.2001C258.3 6.7001 258.5 7.3001 258.6 7.8001C259.8 12.3001 259.9 17.1001 259.9 21.7001C259.9 25.6001 259.8 29.6001 258.9 33.4001C258.8 33.0001 258.7 32.7001 258.6 32.3001C257.9 29.4001 257.3 26.5001 256.8 23.6001C256.2 20.4001 255.7 17.2001 255.8 13.9001ZM251 47.7001C249.2 49.0001 247.1 49.4001 245 48.7001C243 48.1001 241.8 46.5001 241.4 44.6001C240.3 40.4001 242.1 35.3001 244.1 31.6001C245.3 29.4001 246.9 27.7001 249.4 27.1001C251.1 26.7001 252.8 26.7001 254.5 27.0001C254.8 27.1001 255.1 27.1001 255.3 27.2001H255.4C256 30.4001 256.7 33.6001 257.8 36.6001C256.3 40.7001 254.4 45.1001 251 47.7001Z" fill="#001D69"></path>
    <path d="M352.8 55.5C348.1 51.3 347.6 43.9 347.1 38C346.8 33.8 347.4 26.3 341.5 26C338.3 25.8 335.1 27.7 332.6 29.6C329.4 32 326.4 34.8 323.2 37.2C323.2 37.1 323.1 37 323.1 36.8C323 36.4 322.4 36.1 322 36.2C319.8 36.9 317.6 38.7 316.1 40.4C315.6 41 315 41.9 315.5 42.6C316 43.3 317 43.1 317.6 42.8C319.1 42.2 320.5 41.2 321.9 40.2C321.9 40.5 321.9 40.7 321.8 41C321.3 43.1 319.2 43.9 317.2 44.2C310.4 45.3 303.5 42.9 299.5 37.2C298.2 35.4 297.2 33.4 296.8 31.3C296.4 29.1 297.5 27.4 299.2 26.1C302.1 23.9 306.1 23.3 309.7 23.1C313.7 22.9 317.8 23.7 321.3 25.8C322.7 26.6 324 27.7 324.8 29C325.4 29.9 325.7 31.3 324.9 32.2C323.7 33.6 320.8 32.8 319.3 32.4C318.2 32.1 317.7 33.6 318.8 33.9C320.8 34.5 323.4 34.9 325.3 34C328.2 32.6 327.2 29.1 325.5 27.2C322.9 24.3 318.9 22.6 315.1 22C310.5 21.2 305.5 21.6 301.2 23.3C298.5 24.3 295.6 26.3 295 29.3C294.5 31.6 295.5 34 296.5 35.9C298 38.7 300.2 41.2 302.8 42.9C306.2 45.2 310.2 46.1 314.3 46.1C317.4 46.1 321.7 45.6 323.1 42.4C323.6 41.3 323.6 40.2 323.5 39C325.1 37.8 326.7 36.5 328.2 35.2C331.4 32.6 334.5 29.5 338.5 28C339.9 27.5 341.9 27 343.2 28.1C344 28.8 344.4 29.9 344.6 30.9C345 32.6 344.9 34.4 345.1 36.1C345.6 43 346 51.6 351.5 56.5C352.2 57.3 353.6 56.3 352.8 55.5ZM318.2 40.7C318.5 40.4 318.8 40.1 319.1 39.9C319.8 39.3 320.6 38.7 321.5 38.2C321.5 38.3 321.5 38.4 321.6 38.4C320.6 39.1 319.6 39.8 318.6 40.5C318.4 40.6 318.3 40.6 318.2 40.7Z" fill="#001D69"></path>
  </g>
</svg>
